<?xml version="1.0" encoding="UTF-8" standalone="no"?>
<!DOCTYPE svg PUBLIC "-//W3C//DTD SVG 1.1//EN" "http://www.w3.org/Graphics/SVG/1.1/DTD/svg11.dtd">
<svg width="100%" height="100%" viewBox="0 0 848 263" version="1.1" xmlns="http://www.w3.org/2000/svg" xmlns:xlink="http://www.w3.org/1999/xlink" xml:space="preserve" xmlns:serif="http://www.serif.com/" style="fill-rule:evenodd;clip-rule:evenodd;stroke-linejoin:round;stroke-miterlimit:1.41421;">
    <g transform="matrix(1,0,0,1,-499.834,-98.6081)">
        <g id="Logo">
            <g id="Pentagons">
                <g transform="matrix(1.06869,0,0,1.06869,604.037,-11.4794)">
                    <path d="M601.942,103.012L695.575,171.039L659.81,281.111L544.074,281.111L508.31,171.039L601.942,103.012Z" style="fill:rgb(123,94,198);"/>
                </g>
                <g transform="matrix(1.06869,0,0,-1.06869,442.312,471.372)">
                    <path d="M601.942,103.012L695.575,171.039L659.81,281.111L544.074,281.111L508.31,171.039L601.942,103.012Z" style="fill:rgb(59,210,61);"/>
                </g>
                <g transform="matrix(1.06869,0,0,1.06869,280.322,-11.4794)">
                    <path d="M601.942,103.012L695.575,171.039L659.81,281.111L544.074,281.111L508.31,171.039L601.942,103.012Z" style="fill:rgb(255,116,119);"/>
                </g>
                <g transform="matrix(1.06869,0,0,-1.06869,118.124,471.372)">
                    <path d="M601.942,103.012L695.575,171.039L659.81,281.111L544.074,281.111L508.31,171.039L601.942,103.012Z" style="fill:rgb(0,156,205);"/>
                </g>
                <g transform="matrix(1.06869,0,0,1.06869,-43.392,-11.4794)">
                    <path d="M601.942,103.012L695.575,171.039L659.81,281.111L544.074,281.111L508.31,171.039L601.942,103.012Z" style="fill:rgb(232,56,191);"/>
                </g>
            </g>
            <g id="Letters">
                <g transform="matrix(1,0,0,1.08065,2.29159,-10.8056)">
                    <text x="560.615px" y="254.452px" style="font-family:'Elephant-Regular', 'Elephant', serif;font-size:138.805px;fill:white;stroke:white;stroke-width:0.96px;">I</text>
                </g>
                <g transform="matrix(1,0,0,1.08065,147.22,28.3975)">
                    <text x="560.615px" y="254.452px" style="font-family:'Elephant-Regular', 'Elephant', serif;font-size:138.805px;fill:white;stroke:white;stroke-width:0.96px;">V</text>
                </g>
                <g transform="matrix(1,0,0,1.08065,474.91,28.3975)">
                    <text x="560.615px" y="254.452px" style="font-family:'Elephant-Regular', 'Elephant', serif;font-size:138.805px;fill:white;stroke:white;stroke-width:0.96px;">A</text>
                </g>
                <g transform="matrix(1,0,0,1.08065,297.531,-10.6556)">
                    <text x="560.615px" y="254.452px" style="font-family:'Elephant-Regular', 'Elephant', serif;font-size:138.805px;fill:white;stroke:white;stroke-width:0.96px;">R</text>
                </g>
                <g transform="matrix(1,0,0,1.08065,635.493,-9.15559)">
                    <text x="560.615px" y="254.452px" style="font-family:'Elephant-Regular', 'Elephant', serif;font-size:138.805px;fill:white;stroke:white;stroke-width:0.96px;">S</text>
                </g>
            </g>
        </g>
    </g>
</svg>
