<?xml version="1.0" encoding="UTF-8" standalone="no"?>
<!DOCTYPE svg PUBLIC "-//W3C//DTD SVG 1.1//EN" "http://www.w3.org/Graphics/SVG/1.1/DTD/svg11.dtd">
<svg width="100%" height="100%" viewBox="0 0 1024 1024" version="1.1" xmlns="http://www.w3.org/2000/svg" xmlns:xlink="http://www.w3.org/1999/xlink" xml:space="preserve" xmlns:serif="http://www.serif.com/" style="fill-rule:evenodd;clip-rule:evenodd;stroke-linecap:round;stroke-linejoin:round;stroke-miterlimit:1.5;">
    <g transform="matrix(1.09968,0,0,1.09968,-14.2339,8.14414)">
        <g transform="matrix(0.806334,0,0,0.702714,4.31477,187.244)">
            <path d="M163.693,311.899L146.173,305.928L127.869,311.899L138.242,324.856L131.664,355.002L145.781,384.292L158.7,354.941L154.737,324.586L163.693,311.899Z" style="fill:rgb(255,116,119);stroke:rgb(255,116,119);stroke-width:9.62px;"/>
        </g>
        <g transform="matrix(0.806334,0,0,0.806334,4.9984,164.831)">
            <path d="M225.64,363.562L319.711,438.598L439.087,347.166C462.127,325.37 427.245,287.609 402.517,307.611L317.437,372.774L234.596,295.329L194.293,287.46L145.784,399.408L94.288,286.714L39.061,305.777C12.114,438.194 27.851,534.945 71.899,563.255C71.899,563.255 70.811,651.929 70.126,692.166C69.656,719.825 69.118,747.486 69.182,775.148C69.211,787.728 69.778,811.69 70.406,812.868C100.897,870.001 181.021,855.755 146.531,818.092C212.385,874.099 262.538,835.733 225.64,814.36L209.221,543.447L225.64,363.562Z" style="fill:rgb(255,116,119);stroke:rgb(255,116,119);stroke-width:9.02px;"/>
        </g>
        <g transform="matrix(0.888711,0,0,0.806334,-11.6703,164.831)">
            <ellipse cx="151.38" cy="220.427" rx="43.66" ry="58.586" style="fill:rgb(255,116,119);stroke:rgb(255,116,119);stroke-width:8.57px;"/>
        </g>
    </g>
    <g transform="matrix(1,0,0,1,13.1189,87.4591)">
        <g transform="matrix(1,0,0,1,0,30)">
            <path d="M370.66,528.987L679.612,215.453L990.769,529.022C993.9,564.405 967.397,590.572 935.203,577.941C935.203,577.941 680.464,327.832 680.464,324.846C680.464,327.832 424.698,580.927 424.698,580.927C389.154,582.991 368.39,568.718 370.66,528.987Z" style="fill:rgb(255,116,119);"/>
        </g>
        <g>
            <path d="M433.981,612.353L680.756,363.562L927.553,612.353L927.483,856.632L299.06,856.458L299.165,789.266L365.267,790.933L366.014,721.432L433.164,722.249L433.981,612.353Z" style="fill:rgb(255,116,119);"/>
            <g transform="matrix(1,0,0,1.05598,0,-42.2386)">
                <path d="M770.581,623.395C770.581,600.088 750.599,581.166 725.988,581.166L636.803,581.166C612.192,581.166 592.211,600.088 592.211,623.395L592.211,712.237C592.211,735.544 612.192,754.465 636.803,754.465L725.988,754.465C750.599,754.465 770.581,735.544 770.581,712.237L770.581,623.395Z" style="fill:rgb(235,235,235);"/>
            </g>
            <g transform="matrix(-1,0,0,1,1381.86,37.7945)">
                <path d="M885.211,382.219L789.648,286.551L790.254,247.159C821.142,220.65 853.009,220.575 885.888,247.801L885.211,382.219Z" style="fill:rgb(255,116,119);"/>
            </g>
            <path d="M681.396,571.464L681.396,754.465" style="fill:none;"/>
            <path d="M680.756,571.464L681.396,754.465" style="fill:none;stroke:rgb(255,116,119);stroke-width:8px;"/>
            <path d="M592.211,662.965L770.581,662.965" style="fill:none;stroke:rgb(255,116,119);stroke-width:8px;"/>
        </g>
    </g>
</svg>
